<svg width="25" height="25" fill="none" xmlns="http://www.w3.org/2000/svg"><mask id="path-1-inside-1" fill="#fff"><path fill-rule="evenodd" clip-rule="evenodd" d="M11 23.5a1.5 1.5 0 003 0V14h9.5a1.5 1.5 0 000-3H14V1.5a1.5 1.5 0 00-3 0V11H1.5a1.5 1.5 0 000 3H11v9.5z"/></mask><path fill-rule="evenodd" clip-rule="evenodd" d="M11 23.5a1.5 1.5 0 003 0V14h9.5a1.5 1.5 0 000-3H14V1.5a1.5 1.5 0 00-3 0V11H1.5a1.5 1.5 0 000 3H11v9.5z" fill="#252525"/><path d="M14 14v-2h-2v2h2zm0-3h-2v2h2v-2zm-3 0v2h2v-2h-2zm0 3h2v-2h-2v2zm1.5 9a.5.5 0 01.5.5H9a3.5 3.5 0 003.5 3.5v-4zm-.5.5a.5.5 0 01.5-.5v4a3.5 3.5 0 003.5-3.5h-4zm0-9.5v9.5h4V14h-4zm11.5-2H14v4h9.5v-4zm-.5.5a.5.5 0 01.5-.5v4a3.5 3.5 0 003.5-3.5h-4zm.5.5a.5.5 0 01-.5-.5h4A3.5 3.5 0 0023.5 9v4zM14 13h9.5V9H14v4zM12 1.5V11h4V1.5h-4zm.5.5a.5.5 0 01-.5-.5h4A3.5 3.5 0 0012.5-2v4zm.5-.5a.5.5 0 01-.5.5v-4A3.5 3.5 0 009 1.5h4zm0 9.5V1.5H9V11h4zM1.5 13H11V9H1.5v4zm.5-.5a.5.5 0 01-.5.5V9A3.5 3.5 0 00-2 12.5h4zm-.5-.5a.5.5 0 01.5.5h-4A3.5 3.5 0 001.5 16v-4zm9.5 0H1.5v4H11v-4zm2 11.5V14H9v9.5h4z" fill="#252525" mask="url(#path-1-inside-1)"/></svg>