<svg width="204" height="50" fill="none" xmlns="http://www.w3.org/2000/svg"><g clip-path="url(#clip0)"><path d="M38.313 27.77l-3.195 5.563c.767 1.36 8.92 15.308 9.687 16.667h19.17c-.026-.051-25.125-43.513-25.662-44.436-8.153 14.18-13.47 23.487-22.339 38.872h-6.39S33.969 1.974 35.119 0h-6.39L0 50h19.17s2.197-3.82 6.031-10.513c2.352 4.026 5.623 9.616 6.134 10.539h6.39a7848.19 7848.19 0 00-9.354-16.077 6266.487 6266.487 0 019.917-17.257C39.617 19 53.01 42.128 54.364 44.487h-6.39c-.74-1.384-8.869-15.359-9.66-16.718z" fill="#fff"/></g><path d="M102.516 31.274h-9.434l-1.493 3.387H88L97.243 14h1.144l9.243 20.661h-3.621l-1.493-3.387zm-4.7-11.208l-3.527 8.406h7.02l-3.494-8.406zm28.302-5.727L116.875 35h-1.144l-9.243-20.661h3.78l6.035 14.133 6.035-14.133h3.78zm13.374 16.935h-9.434l-1.493 3.387h-3.589L134.219 14h1.144l9.243 20.661h-3.621l-1.493-3.387zm-4.701-11.208l-3.526 8.406h7.02l-3.494-8.406zm13.154-5.727h3.367V34.66h-3.367V14.34zm17.343 20.322h-4.161l-9.72-10.808 8.799-9.514h4.13l-8.704 9.514 9.656 10.808zm3.347-20.322h13.786v2.925h-10.419v5.204h7.846V25.3h-7.846v6.435h10.8v2.925h-14.167V14.34zm35.365 0V35h-1.144l-12.769-14.103v13.764h-3.367V14h1.175l12.738 14.041V14.34H204z" fill="#fff"/><defs><clipPath id="clip0"><path fill="#fff" d="M0 0h64v50H0z"/></clipPath></defs></svg>